<svg width="38" height="37" viewBox="0 0 38 37" fill="none" xmlns="http://www.w3.org/2000/svg">
<path d="M23.4642 22.1886C23.4411 23.5911 29.4677 23.5321 29.4677 23.5321C29.4677 23.5321 29.5126 25.3156 27.0789 28.1552C23.9421 31.8167 17.1622 33.1713 14.9074 29.0097C14.6159 28.4899 14.4457 27.9115 14.4096 27.3174C14.3735 26.7234 14.4723 26.1289 14.6987 25.578C14.9614 26.1436 15.3107 26.6653 15.7341 27.1246C16.4692 27.915 17.3621 28.5441 18.3558 28.9715C17.5479 28.3972 16.8047 27.7377 16.1392 27.0047C15.6617 26.4188 15.2952 25.7515 15.0577 25.0354L15.5024 24.4414C16.5516 25.5439 17.716 26.532 18.9759 27.3889C19.7264 27.9637 20.6105 28.3411 21.5464 28.4861C20.6465 28.2136 19.81 27.766 19.0857 27.1692C17.9266 26.1649 16.8978 25.0212 16.0228 23.7644C16.4237 23.2541 16.8568 22.7232 17.3116 22.1611C18.016 22.6578 18.7788 23.0671 19.583 23.3799C20.5991 23.7501 21.6747 23.9323 22.7567 23.9174C21.7275 23.6552 20.7159 23.3285 19.7282 22.9393C18.9931 22.6367 18.3396 22.1672 17.82 21.5682C18.6646 20.5273 19.5622 19.4872 20.4705 18.4473C21.0632 18.8012 21.7062 19.0642 22.3778 19.2276C23.0055 19.401 23.6712 19.3826 24.2882 19.1747C23.6605 19.1197 23.0425 18.9854 22.4489 18.7752C21.8984 18.5799 21.4047 18.253 21.0112 17.8233C22.2331 16.4194 28.0365 9.94321 28.0365 9.94321L22.6404 15.5189C22.2179 14.4943 21.9048 13.4285 21.7061 12.339C21.6052 11.5589 21.6397 10.7673 21.8083 9.9989C21.8083 9.9989 21.6564 10.8508 21.5721 12.1047C21.6097 13.4063 21.8203 14.6973 22.1984 15.9441L18.8854 19.36C18.3098 18.4431 17.8077 17.4825 17.3838 16.4872C16.8115 14.9669 16.3479 13.4083 15.9966 11.823C16.0823 13.3168 16.3501 14.7947 16.794 16.2243C17.2215 17.4833 17.7513 18.7056 18.3782 19.8791L16.0796 22.2463C15.0364 21.1936 14.0795 20.0596 13.2181 18.8553C12.4847 17.4272 11.8428 15.9546 11.2962 14.4461C11.5131 16.0677 12.0381 17.6335 12.8434 19.0601C13.8767 20.7332 15.0079 22.2603 15.4751 22.8798L14.7197 23.6585C13.5101 23.1754 12.3887 22.4976 11.4004 21.6524C10.193 20.4425 9.09962 19.1251 8.13407 17.7168C8.91174 19.2601 9.89041 20.6948 11.0448 21.9841C11.9676 22.818 12.9845 23.5427 14.0752 24.1437C13.9387 24.268 13.799 24.3817 13.6558 24.4849C12.9193 24.6062 12.1644 24.554 11.4517 24.3326C10.7624 24.0372 10.1329 23.6193 9.59429 23.0994C10.03 23.7874 10.6592 24.3333 11.4037 24.6693C11.8347 24.8692 12.2941 25.0013 12.7658 25.0609C8.03466 27.6202 4.1351 21.5539 5.65507 16.2203C6.85934 12.0207 11.5908 8.15346 11.5908 8.15346C11.4259 9.56379 11.5028 10.9918 11.8183 12.3766C12.3386 14.2839 13.7254 17.6822 15.4362 17.51C17.147 17.3377 12.2455 11.5609 12.9177 8.10147C13.4857 5.17834 19.5389 4.79277 19.5389 4.79277C19.084 4.99541 18.6795 5.29522 18.3543 5.6709C18.0291 6.04658 17.7911 6.48891 17.6573 6.96642C17.0472 8.58085 18.2612 14.0966 19.5826 14.3821C21.2962 14.6845 17.7821 8.40307 20.8669 5.96442C22.6297 4.5694 24.9448 6.35856 26.7697 6.98987C27.9729 7.36518 29.2504 7.44055 30.4897 7.20935C30.4897 7.20935 30.5692 8.18112 30.6709 10.3769C30.7727 12.5726 32.1059 14.0714 31.0125 15.4036C29.9191 16.7358 25.8899 15.9627 26.2633 17.1292C26.6366 18.2957 31.141 16.6188 31.141 16.6188C31.141 16.6188 31.1236 17.6733 30.9776 20.0971C30.8317 22.5208 23.4968 20.8494 23.4642 22.1886Z" fill="#0EA91E"/>
</svg>
