<svg width="14" height="14" viewBox="0 0 14 14" fill="none" xmlns="http://www.w3.org/2000/svg">
<path d="M0.581733 11.948C0.247143 12.2826 0.247143 12.825 0.581733 13.1596C0.916322 13.4942 1.4588 13.4942 1.79339 13.1596L0.581733 11.948ZM13.3531 1.245C13.3531 0.771823 12.9695 0.388234 12.4964 0.388234H4.78542C4.31224 0.388234 3.92865 0.771823 3.92865 1.245C3.92865 1.71819 4.31224 2.10178 4.78542 2.10178H11.6396V8.95594C11.6396 9.42912 12.0232 9.81271 12.4964 9.81271C12.9695 9.81271 13.3531 9.42912 13.3531 8.95594V1.245ZM1.79339 13.1596L13.1022 1.85083L11.8905 0.639176L0.581733 11.948L1.79339 13.1596Z" fill="#090909"/>
</svg>
