<svg width="183" height="79" viewBox="0 0 183 79" fill="none" xmlns="http://www.w3.org/2000/svg">
<path fill-rule="evenodd" clip-rule="evenodd" d="M182.261 19.2036C182.261 8.79364 173.822 0.354675 163.412 0.354675H62.3133C49.6952 0.354675 39.4661 10.5837 39.4661 23.2019V25.9903C39.4661 29.7903 37.9566 33.4346 35.2696 36.1216L34.1418 37.2494C30.3086 41.0826 24.3243 41.4797 18.9033 41.4797C8.80879 41.4797 0.625549 49.6629 0.625549 59.7575C0.625549 69.852 8.80879 78.0352 18.9033 78.0352C28.9979 78.0352 37.1811 69.852 37.1811 59.7575C37.1811 54.3368 37.5783 48.3528 41.4113 44.5198L43.2753 42.6558C46.2227 39.7084 50.2202 38.0526 54.3884 38.0526H163.412C173.822 38.0526 182.261 29.6136 182.261 19.2036Z" fill="white"/>
</svg>
